<svg height="512" viewBox="0 0 512 512" width="512" xmlns="http://www.w3.org/2000/svg"><g><path d="m464 472h-136v-8a8 8 0 0 0 -8-8h-40v-24a8 8 0 0 0 -8-8h-8v-80h160a32.03 32.03 0 0 0 32-32v-48a31.92 31.92 0 0 0 -10.87-24 31.92 31.92 0 0 0 10.87-24v-48a31.92 31.92 0 0 0 -10.87-24 31.92 31.92 0 0 0 10.87-24v-48a32.03 32.03 0 0 0 -32-32h-144v-24a8 8 0 0 0 -8-8h-32a8 8 0 0 0 -8 8v24h-144a32.03 32.03 0 0 0 -32 32v48a31.92 31.92 0 0 0 10.87 24 31.92 31.92 0 0 0 -10.87 24v48a31.92 31.92 0 0 0 10.87 24 31.92 31.92 0 0 0 -10.87 24v48a32.03 32.03 0 0 0 32 32h160v80h-8a8 8 0 0 0 -8 8v24h-40a8 8 0 0 0 -8 8v8h-168a8 8 0 0 0 0 16h168v8a8 8 0 0 0 8 8h128a8 8 0 0 0 8-8v-8h136a8 8 0 0 0 0-16zm-216-448h16v16h-16zm-176 48a16.021 16.021 0 0 1 16-16h336a16.021 16.021 0 0 1 16 16v48a16.021 16.021 0 0 1 -16 16h-336a16.021 16.021 0 0 1 -16-16zm0 96a16.021 16.021 0 0 1 16-16h336a16.021 16.021 0 0 1 16 16v48a16.021 16.021 0 0 1 -16 16h-336a16.021 16.021 0 0 1 -16-16zm16 160a16.021 16.021 0 0 1 -16-16v-48a16.021 16.021 0 0 1 16-16h336a16.021 16.021 0 0 1 16 16v48a16.021 16.021 0 0 1 -16 16zm160 112h16v16h-16zm64 48h-112v-16h112z"/><path d="m496 472h-8a8 8 0 0 0 0 16h8a8 8 0 0 0 0-16z"/><path d="m112 168a24 24 0 1 0 24 24 24.027 24.027 0 0 0 -24-24zm0 32a8 8 0 1 1 8-8 8.009 8.009 0 0 1 -8 8z"/><path d="m168 168a24 24 0 1 0 24 24 24.027 24.027 0 0 0 -24-24zm0 32a8 8 0 1 1 8-8 8.009 8.009 0 0 1 -8 8z"/><path d="m424 176a8 8 0 0 0 -8-8h-96a8 8 0 0 0 0 16h96a8 8 0 0 0 8-8z"/><path d="m416 200h-40a8 8 0 0 0 0 16h40a8 8 0 0 0 0-16z"/><path d="m296 168h-8a8 8 0 0 0 0 16h8a8 8 0 0 0 0-16z"/><path d="m112 72a24 24 0 1 0 24 24 24.027 24.027 0 0 0 -24-24zm0 32a8 8 0 1 1 8-8 8.009 8.009 0 0 1 -8 8z"/><path d="m168 72a24 24 0 1 0 24 24 24.027 24.027 0 0 0 -24-24zm0 32a8 8 0 1 1 8-8 8.009 8.009 0 0 1 -8 8z"/><path d="m424 88a8 8 0 0 0 -8-8h-96a8 8 0 0 0 0 16h96a8 8 0 0 0 8-8z"/><path d="m416 104h-40a8 8 0 0 0 0 16h40a8 8 0 0 0 0-16z"/><path d="m296 80h-8a8 8 0 0 0 0 16h8a8 8 0 0 0 0-16z"/><path d="m112 264a24 24 0 1 0 24 24 24.027 24.027 0 0 0 -24-24zm0 32a8 8 0 1 1 8-8 8.009 8.009 0 0 1 -8 8z"/><path d="m168 264a24 24 0 1 0 24 24 24.027 24.027 0 0 0 -24-24zm0 32a8 8 0 1 1 8-8 8.009 8.009 0 0 1 -8 8z"/><path d="m320 280h96a8 8 0 0 0 0-16h-96a8 8 0 0 0 0 16z"/><path d="m416 296h-40a8 8 0 0 0 0 16h40a8 8 0 0 0 0-16z"/><path d="m288 280h8a8 8 0 0 0 0-16h-8a8 8 0 0 0 0 16z"/></g></svg>